<svg width="259" height="178" viewBox="0 0 259 178" fill="none" xmlns="http://www.w3.org/2000/svg">
<path d="M258.802 42.7492C258.802 65.8746 239.368 85.1458 216.047 85.1458C192.726 85.1458 175.235 63.9475 175.235 42.7492C175.235 19.6238 192.726 0.352676 216.047 0.352676C239.368 0.352676 258.802 19.6238 258.802 42.7492ZM161.631 89C151.914 73.5831 136.367 73.5831 126.65 89L124.707 90.9271C116.933 79.3644 109.159 65.8746 103.329 54.3119C89.7252 31.1865 68.3476 31.1865 54.7437 54.3119C41.1398 77.4373 19.7623 114.052 6.15841 137.178C-7.44548 160.303 4.215 177.647 31.4228 177.647H181.066C200.5 177.647 208.273 166.085 198.556 148.741C188.839 131.397 173.292 106.344 161.631 89Z" fill="#B3B3B3"/>
</svg>
