<svg xmlns="http://www.w3.org/2000/svg" width="14" height="14" x="0" y="0" class="stencil--easier-to-select" style="opacity: 1;"><defs/><rect x="0" y="0" width="14" height="14" fill="transparent" class="stencil__selection-helper"/><path d="M14 1.5C14 1.5 14 12.5 14 12.5 14 13.326666666666664 13.326666666666664 14 12.5 14 12.5 14 9.833333333333332 14 9.833333333333332 14 9.833333333333332 14 9.833333333333332 8.459999999999999 9.833333333333332 8.459999999999999 9.833333333333332 8.459999999999999 11.726666666666667 8.459999999999999 11.726666666666667 8.459999999999999 11.726666666666667 8.459999999999999 12 6.353333333333333 12 6.353333333333333 12 6.353333333333333 9.833333333333332 6.353333333333333 9.833333333333332 6.353333333333333 9.833333333333332 6.353333333333333 9.833333333333332 5 9.833333333333332 5 9.833333333333332 4.386666666666667 10 3.9733333333333327 10.879999999999999 3.9733333333333327 10.879999999999999 3.9733333333333327 12 3.9733333333333327 12 3.9733333333333327 12 3.9733333333333327 12 2.0866666666666664 12 2.0866666666666664 11.806666666666667 2.0599999999999996 11.146666666666665 2 10.366666666666667 2 8.753333333333334 2 7.653333333333333 2.986666666666667 7.653333333333333 4.793333333333333 7.653333333333333 4.793333333333333 7.653333333333333 6.353333333333333 7.653333333333333 6.353333333333333 7.653333333333333 6.353333333333333 5.753333333333334 6.353333333333333 5.753333333333334 6.353333333333333 5.753333333333334 6.353333333333333 5.753333333333334 8.466666666666665 5.753333333333334 8.466666666666665 5.753333333333334 8.466666666666665 7.653333333333333 8.466666666666665 7.653333333333333 8.466666666666665 7.653333333333333 8.466666666666665 7.653333333333333 14 7.653333333333333 14 7.653333333333333 14 1.5 14 1.5 14 0.6733333333333333 14 0 13.326666666666664 0 12.5 0 12.5 0 1.5 0 1.5 0 0.6733333333333331 0.6733333333333333 0 1.5 0 1.5 0 12.5 0 12.5 0 13.326666666666664 0 14 0.6733333333333331 14 1.5 14 1.5 14 1.5 14 1.5" stroke-width="0" stroke="none" stroke-dasharray="none" stroke-dashoffset="none" fill="rgb(59, 71, 84)" fill-rule="evenOdd"/></svg>