<svg xmlns="http://www.w3.org/2000/svg" width="14" height="14" x="0" y="0" class="stencil--easier-to-select" style="opacity: 1;"><defs/><rect x="0" y="0" width="14" height="14" fill="transparent" class="stencil__selection-helper"/><path d="M6.999999999999999 3.4095940959409594C5.014278914802474 3.4095940959409594 3.4150404569252735 5.00940364242352 3.4150404569252735 7.002499702416378 3.4150404569252735 8.995595762409236 5.014278914802474 10.588739435781452 6.999999999999999 10.588739435781452 8.985721085197525 10.588739435781452 10.591623036649215 8.988929889298893 10.591623036649215 7.002499702416378 10.591623036649215 5.016069515533864 8.992384578772013 3.4095940959409594 6.999999999999999 3.4095940959409594 6.999999999999999 3.4095940959409594 6.999999999999999 3.4095940959409594 6.999999999999999 3.4095940959409594M6.999999999999999 9.33555529103678C5.720609233698238 9.33555529103678 4.667777248929081 8.28901321271277 4.667777248929081 7.002499702416378 4.667777248929081 5.715986192119985 5.71394574012375 4.662778240685633 6.999999999999999 4.662778240685633 8.286054259876249 4.662778240685633 9.338886244645407 5.709320319009642 9.338886244645407 7.002499702416378 9.338886244645407 8.295679085823116 8.286054259876249 9.33555529103678 6.999999999999999 9.33555529103678 6.999999999999999 9.33555529103678 6.999999999999999 9.33555529103678 6.999999999999999 9.33555529103678M11.577820085673489 3.262944887513391C11.577820085673489 3.7295560052374714 11.198000951927654 4.102844899416736 10.738219895287957 4.102844899416736 10.271775345073774 4.102844899416736 9.898619704902426 3.7228901321271275 9.898619704902426 3.262944887513391 9.898619704902426 2.8029996428996538 10.278438838648263 2.423044875610046 10.738219895287957 2.423044875610046 11.198000951927652 2.423044875610046 11.577820085673489 2.8029996428996546 11.577820085673489 3.262944887513391 11.577820085673489 3.262944887513391 11.577820085673489 3.262944887513391 11.577820085673489 3.262944887513391M13.950023798191337 4.10951077252708C13.89671584959543 2.989644089989287 13.643503093764872 1.9964289965480297 12.823893384102806 1.176526603975717 12.004283674440742 0.35662421140340406 11.01142313184198 0.10332103321033193 9.891956211327939 0.04999404832757992 8.732508329366969-0.016664682775860085 5.2674916706330315-0.016664682775860085 4.114707282246549 0.04999404832757992 2.9952403617325083 0.10332103321033193 2.0023798191337456 0.35662421140340406 1.18277010947168 1.176526603975717 0.36316039980961445 1.9964289965480297 0.10328415040456924 2.989644089989287 0.049976201808662545 4.10951077252708-0.016658733936220846 5.262706820616593-0.016658733936220846 8.728960837995476 0.049976201808662545 9.888822759195332 0.10328415040456924 11.008689441733127 0.35649690623512614 12.001904535174383 1.18277010947168 12.821806927746696 2.009043312708234 13.64170932031901 2.9952403617325083 13.89501249851208 4.114707282246549 13.955005356505175 5.2674916706330315 14.014998214498272 8.732508329366969 14.014998214498272 9.891956211327939 13.955005356505175 11.01142313184198 13.901678371622426 12.004283674440742 13.64170932031901 12.823893384102806 12.821806927746696 13.643503093764872 12.001904535174383 13.89671584959543 11.008689441733127 13.950023798191337 9.888822759195332 14.016658733936222 8.728960837995476 14.016658733936222 5.269372693726937 13.950023798191337 4.10951077252708 13.950023798191337 4.10951077252708 13.950023798191337 4.10951077252708 13.950023798191337 4.10951077252708M12.45740123750595 11.12867515771932C12.217515468824368 11.741935483870966 11.744407425035698 12.208546601595046 11.131366016182769 12.455183906677775 10.20514040932889 12.821806927746696 8.019514516896715 12.741816450422567 6.999999999999999 12.741816450422567 5.980485483103283 12.741816450422567 3.794859590671109 12.821806927746696 2.875297477391718 12.455183906677775 2.262256068538791 12.21521247470539 1.7958115183246073 11.741935483870966 1.5492622560685387 11.12867515771932 1.18277010947168 10.202118795381502 1.2627320323655402 8.015712415188666 1.2627320323655402 7.002499702416378 1.2627320323655402 5.989286989644089 1.18277010947168 3.789548863230567 1.5492622560685387 2.869658374003094 1.789148024750119 2.256398047851446 2.262256068538791 1.7897869301273652 2.875297477391718 1.543149625044637 3.801523084245597 1.176526603975717 5.987148976677772 1.2565170812998447 6.999999999999999 1.2565170812998447 8.012851023322227 1.2565170812998447 10.211803902903378 1.176526603975717 11.131366016182769 1.543149625044637 11.744407425035698 1.7831210570170213 12.21085197524988 2.256398047851446 12.45740123750595 2.869658374003094 12.823893384102806 3.7962147363409118 12.743931461208948 5.982621116533745 12.743931461208948 7.002499702416378 12.743931461208948 8.022378288299011 12.823893384102806 10.208784668491845 12.45740123750595 11.12867515771932 12.45740123750595 11.12867515771932 12.45740123750595 11.12867515771932 12.45740123750595 11.12867515771932" stroke-width="0" stroke="none" stroke-dasharray="none" stroke-dashoffset="none" fill="rgb(59, 71, 84)" fill-rule="evenOdd"/></svg>