<svg xmlns="http://www.w3.org/2000/svg" width="16" height="16" x="0" y="0" class="stencil--easier-to-select" style="opacity: 1;"><defs/><rect x="0" y="0" width="16" height="16" fill="transparent" class="stencil__selection-helper"/><style>#mq-stencil-icon-cddfc4f7 * { vector-effect: non-scaling-size; }</style><g id="mq-stencil-icon-cddfc4f7" fill="rgb(0,0,0)" stroke-width="0" stroke="none" stroke-dasharray="none"><svg preserveAspectRatio="none" width="100%" viewBox="0 0 24 24" height="100%" xmlns="http://www.w3.org/2000/svg"><path d="M20 4H4c-1.1 0-2 .9-2 2v12c0 1.1.9 2 2 2h16c1.1 0 2-.9 2-2V6c0-1.1-.9-2-2-2zm-.4 4.25l-6.54 4.09c-.65.41-1.47.41-2.12 0L4.4 8.25c-.25-.16-.4-.43-.4-.72 0-.67.73-1.07 1.3-.72L12 11l6.7-4.19c.57-.35 1.3.05 1.3.72 0 .29-.15.56-.4.72z"/></svg></g></svg>