<svg width="839" height="418" viewBox="0 0 839 418" fill="none" xmlns="http://www.w3.org/2000/svg">
<path d="M0 0H839V418H0V0Z" fill="#E6E6E6"/>
<path d="M548.802 162.749C548.802 185.875 529.368 205.146 506.047 205.146C482.726 205.146 465.235 183.947 465.235 162.749C465.235 139.624 482.726 120.353 506.047 120.353C529.368 120.353 548.802 139.624 548.802 162.749ZM451.631 209C441.914 193.583 426.367 193.583 416.65 209L414.707 210.927C406.933 199.364 399.159 185.875 393.329 174.312C379.725 151.187 358.348 151.187 344.744 174.312C331.14 197.437 309.762 234.052 296.158 257.178C282.555 280.303 294.215 297.647 321.423 297.647H471.066C490.5 297.647 498.273 286.085 488.556 268.741C478.839 251.397 463.292 226.344 451.631 209Z" fill="#29323D"/>
</svg>
