<svg xmlns="http://www.w3.org/2000/svg" width="28" height="28" x="0" y="0" class="stencil--easier-to-select" style="opacity: 1;"><defs/><rect x="0" y="0" width="28" height="28" fill="transparent" class="stencil__selection-helper"/><path d="M14 14C17.8675 14 21 10.8675 21 7 21 3.1324999999999985 17.8675 0 14 0 10.1325 0 7 3.1325000000000003 7 7 7 10.8675 10.1325 14 14 14 14 14 14 14 14 14M14 17.5C9.3275 17.5 0 19.845 0 24.5 0 24.5 0 28 0 28 0 28 28 28 28 28 28 28 28 24.5 28 24.5 28 19.845 18.6725 17.5 14 17.5 14 17.5 14 17.5 14 17.5" stroke-width="0" stroke="none" stroke-dasharray="none" stroke-dashoffset="none" fill="rgb(159, 175, 193)" fill-rule="evenOdd"/></svg>