<svg xmlns="http://www.w3.org/2000/svg" width="28" height="18" x="0" y="0" class="stencil--easier-to-select" style="opacity: 1;"><defs/><rect x="0" y="0" width="28" height="18" fill="transparent" class="stencil__selection-helper"/><path d="M19.09090909090909 7.714285714285715C21.203636363636363 7.714285714285715 22.896363636363635 5.991428571428573 22.896363636363635 3.8571428571428577 22.896363636363635 1.7228571428571424 21.203636363636363 0 19.09090909090909 0 16.978181818181817 0 15.272727272727273 1.7228571428571424 15.272727272727273 3.8571428571428577 15.272727272727273 5.991428571428573 16.978181818181817 7.714285714285715 19.09090909090909 7.714285714285715 19.09090909090909 7.714285714285715 19.09090909090909 7.714285714285715 19.09090909090909 7.714285714285715M8.909090909090908 7.714285714285715C11.021818181818182 7.714285714285715 12.714545454545455 5.991428571428573 12.714545454545455 3.8571428571428577 12.714545454545455 1.7228571428571424 11.021818181818182 0 8.909090909090908 0 6.796363636363636 0 5.090909090909091 1.7228571428571424 5.090909090909091 3.8571428571428577 5.090909090909091 5.991428571428573 6.796363636363636 7.714285714285715 8.909090909090908 7.714285714285715 8.909090909090908 7.714285714285715 8.909090909090908 7.714285714285715 8.909090909090908 7.714285714285715M8.909090909090908 10.285714285714286C5.943636363636363 10.285714285714286 0 11.790000000000001 0 14.785714285714286 0 14.785714285714286 0 18 0 18 0 18 17.818181818181817 18 17.818181818181817 18 17.818181818181817 18 17.818181818181817 14.785714285714286 17.818181818181817 14.785714285714286 17.818181818181817 11.790000000000001 11.874545454545453 10.285714285714286 8.909090909090908 10.285714285714286 8.909090909090908 10.285714285714286 8.909090909090908 10.285714285714286 8.909090909090908 10.285714285714286M19.09090909090909 10.285714285714286C18.721818181818183 10.285714285714286 18.30181818181818 10.311428571428573 17.856363636363636 10.350000000000003 19.332727272727272 11.430000000000001 20.363636363636363 12.882857142857143 20.363636363636363 14.785714285714286 20.363636363636363 14.785714285714286 20.363636363636363 18 20.363636363636363 18 20.363636363636363 18 28 18 28 18 28 18 28 14.785714285714286 28 14.785714285714286 28 11.790000000000001 22.056363636363635 10.285714285714286 19.09090909090909 10.285714285714286 19.09090909090909 10.285714285714286 19.09090909090909 10.285714285714286 19.09090909090909 10.285714285714286" stroke-width="0" stroke="none" stroke-dasharray="none" stroke-dashoffset="none" fill="rgb(159, 175, 193)" fill-rule="evenOdd"/></svg>