<svg xmlns="http://www.w3.org/2000/svg" width="28" height="25" x="0" y="0" class="stencil--easier-to-select" style="opacity: 1;"><defs/><rect x="0" y="0" width="28" height="25" fill="transparent" class="stencil__selection-helper"/><path d="M13.999999999999996 5.555555555555555C13.999999999999996 5.555555555555555 13.999999999999996 0 13.999999999999996 0 13.999999999999996 0 0 0 0 0 0 0 0 25 0 25 0 25 27.999999999999996 25 27.999999999999996 25 27.999999999999996 25 27.999999999999996 5.555555555555555 27.999999999999996 5.555555555555555 27.999999999999996 5.555555555555555 13.999999999999996 5.555555555555555 13.999999999999996 5.555555555555555 13.999999999999996 5.555555555555555 13.999999999999996 5.555555555555555 13.999999999999996 5.555555555555555M5.599999999999999 22.22222222222222C5.599999999999999 22.22222222222222 2.8 22.22222222222222 2.8 22.22222222222222 2.8 22.22222222222222 2.8 19.444444444444443 2.8 19.444444444444443 2.8 19.444444444444443 5.599999999999999 19.444444444444443 5.599999999999999 19.444444444444443 5.599999999999999 19.444444444444443 5.599999999999999 22.22222222222222 5.599999999999999 22.22222222222222 5.599999999999999 22.22222222222222 5.599999999999999 22.22222222222222 5.599999999999999 22.22222222222222M5.599999999999999 16.666666666666664C5.599999999999999 16.666666666666664 2.8 16.666666666666664 2.8 16.666666666666664 2.8 16.666666666666664 2.8 13.888888888888888 2.8 13.888888888888888 2.8 13.888888888888888 5.599999999999999 13.888888888888888 5.599999999999999 13.888888888888888 5.599999999999999 13.888888888888888 5.599999999999999 16.666666666666664 5.599999999999999 16.666666666666664 5.599999999999999 16.666666666666664 5.599999999999999 16.666666666666664 5.599999999999999 16.666666666666664M5.599999999999999 11.11111111111111C5.599999999999999 11.11111111111111 2.8 11.11111111111111 2.8 11.11111111111111 2.8 11.11111111111111 2.8 8.333333333333334 2.8 8.333333333333334 2.8 8.333333333333334 5.599999999999999 8.333333333333334 5.599999999999999 8.333333333333334 5.599999999999999 8.333333333333334 5.599999999999999 11.11111111111111 5.599999999999999 11.11111111111111 5.599999999999999 11.11111111111111 5.599999999999999 11.11111111111111 5.599999999999999 11.11111111111111M5.599999999999999 5.555555555555555C5.599999999999999 5.555555555555555 2.8 5.555555555555555 2.8 5.555555555555555 2.8 5.555555555555555 2.8 2.7777777777777786 2.8 2.7777777777777786 2.8 2.7777777777777786 5.599999999999999 2.7777777777777786 5.599999999999999 2.7777777777777786 5.599999999999999 2.7777777777777786 5.599999999999999 5.555555555555555 5.599999999999999 5.555555555555555 5.599999999999999 5.555555555555555 5.599999999999999 5.555555555555555 5.599999999999999 5.555555555555555M11.2 22.22222222222222C11.2 22.22222222222222 8.399999999999999 22.22222222222222 8.399999999999999 22.22222222222222 8.399999999999999 22.22222222222222 8.399999999999999 19.444444444444443 8.399999999999999 19.444444444444443 8.399999999999999 19.444444444444443 11.2 19.444444444444443 11.2 19.444444444444443 11.2 19.444444444444443 11.2 22.22222222222222 11.2 22.22222222222222 11.2 22.22222222222222 11.2 22.22222222222222 11.2 22.22222222222222M11.2 16.666666666666664C11.2 16.666666666666664 8.399999999999999 16.666666666666664 8.399999999999999 16.666666666666664 8.399999999999999 16.666666666666664 8.399999999999999 13.888888888888888 8.399999999999999 13.888888888888888 8.399999999999999 13.888888888888888 11.2 13.888888888888888 11.2 13.888888888888888 11.2 13.888888888888888 11.2 16.666666666666664 11.2 16.666666666666664 11.2 16.666666666666664 11.2 16.666666666666664 11.2 16.666666666666664M11.2 11.11111111111111C11.2 11.11111111111111 8.399999999999999 11.11111111111111 8.399999999999999 11.11111111111111 8.399999999999999 11.11111111111111 8.399999999999999 8.333333333333334 8.399999999999999 8.333333333333334 8.399999999999999 8.333333333333334 11.2 8.333333333333334 11.2 8.333333333333334 11.2 8.333333333333334 11.2 11.11111111111111 11.2 11.11111111111111 11.2 11.11111111111111 11.2 11.11111111111111 11.2 11.11111111111111M11.2 5.555555555555555C11.2 5.555555555555555 8.399999999999999 5.555555555555555 8.399999999999999 5.555555555555555 8.399999999999999 5.555555555555555 8.399999999999999 2.7777777777777786 8.399999999999999 2.7777777777777786 8.399999999999999 2.7777777777777786 11.2 2.7777777777777786 11.2 2.7777777777777786 11.2 2.7777777777777786 11.2 5.555555555555555 11.2 5.555555555555555 11.2 5.555555555555555 11.2 5.555555555555555 11.2 5.555555555555555M25.2 22.22222222222222C25.2 22.22222222222222 13.999999999999996 22.22222222222222 13.999999999999996 22.22222222222222 13.999999999999996 22.22222222222222 13.999999999999996 19.444444444444443 13.999999999999996 19.444444444444443 13.999999999999996 19.444444444444443 16.799999999999997 19.444444444444443 16.799999999999997 19.444444444444443 16.799999999999997 19.444444444444443 16.799999999999997 16.666666666666664 16.799999999999997 16.666666666666664 16.799999999999997 16.666666666666664 13.999999999999996 16.666666666666664 13.999999999999996 16.666666666666664 13.999999999999996 16.666666666666664 13.999999999999996 13.888888888888888 13.999999999999996 13.888888888888888 13.999999999999996 13.888888888888888 16.799999999999997 13.888888888888888 16.799999999999997 13.888888888888888 16.799999999999997 13.888888888888888 16.799999999999997 11.11111111111111 16.799999999999997 11.11111111111111 16.799999999999997 11.11111111111111 13.999999999999996 11.11111111111111 13.999999999999996 11.11111111111111 13.999999999999996 11.11111111111111 13.999999999999996 8.333333333333334 13.999999999999996 8.333333333333334 13.999999999999996 8.333333333333334 25.2 8.333333333333334 25.2 8.333333333333334 25.2 8.333333333333334 25.2 22.22222222222222 25.2 22.22222222222222 25.2 22.22222222222222 25.2 22.22222222222222 25.2 22.22222222222222M22.4 11.11111111111111C22.4 11.11111111111111 19.599999999999998 11.11111111111111 19.599999999999998 11.11111111111111 19.599999999999998 11.11111111111111 19.599999999999998 13.888888888888888 19.599999999999998 13.888888888888888 19.599999999999998 13.888888888888888 22.4 13.888888888888888 22.4 13.888888888888888 22.4 13.888888888888888 22.4 11.11111111111111 22.4 11.11111111111111 22.4 11.11111111111111 22.4 11.11111111111111 22.4 11.11111111111111M22.4 16.666666666666664C22.4 16.666666666666664 19.599999999999998 16.666666666666664 19.599999999999998 16.666666666666664 19.599999999999998 16.666666666666664 19.599999999999998 19.444444444444443 19.599999999999998 19.444444444444443 19.599999999999998 19.444444444444443 22.4 19.444444444444443 22.4 19.444444444444443 22.4 19.444444444444443 22.4 16.666666666666664 22.4 16.666666666666664 22.4 16.666666666666664 22.4 16.666666666666664 22.4 16.666666666666664" stroke-width="0" stroke="none" stroke-dasharray="none" stroke-dashoffset="none" fill="rgb(159, 175, 193)" fill-rule="evenOdd"/></svg>