<svg xmlns="http://www.w3.org/2000/svg" width="14" height="12" x="0" y="0" class="stencil--easier-to-select" style="opacity: 1;"><defs/><rect x="0" y="0" width="14" height="12" fill="transparent" class="stencil__selection-helper"/><path d="M12.559166666666668 2.990769230769231C12.570833333333335 3.1200000000000006 12.570833333333335 3.255384615384616 12.570833333333335 3.3846153846153846 12.570833333333335 7.384615384615385 9.683333333333335 12 4.404166666666667 12 2.7824999999999998 12 1.271666666666667 11.501538461538463 0 10.64 0.23333333333333336 10.664615384615384 0.45500000000000007 10.676923076923078 0.6941666666666667 10.676923076923078 2.0358333333333336 10.676923076923078 3.2666666666666666 10.196923076923078 4.2525 9.384615384615385 2.9925 9.353846153846154 1.9366666666666668 8.486153846153845 1.5750000000000002 7.286153846153846 1.75 7.310769230769232 1.925 7.329230769230769 2.111666666666667 7.329230769230769 2.374166666666667 7.329230769230769 2.6308333333333334 7.292307692307693 2.87 7.224615384615385 1.5516666666666667 6.947692307692307 0.5658333333333333 5.729230769230769 0.5658333333333333 4.258461538461539 0.5658333333333333 4.258461538461539 0.5658333333333333 4.2215384615384615 0.5658333333333333 4.2215384615384615 0.9508333333333333 4.443076923076925 1.3941666666666668 4.584615384615384 1.866666666666667 4.603076923076923 1.0908333333333335 4.061538461538461 0.5891666666666667 3.1323076923076925 0.5891666666666667 2.08 0.5891666666666667 1.52 0.7291666666666667 1.003076923076923 0.98 0.5538461538461539 2.3916666666666666 2.393846153846154 4.515000000000001 3.593846153846154 6.8950000000000005 3.7230769230769236 6.848333333333334 3.4953846153846153 6.825 3.261538461538462 6.825 3.0276923076923077 6.825 1.3600000000000003 8.102500000000001 0 9.689166666666667 0 10.517500000000002 0 11.264166666666666 0.3692307692307695 11.789166666666668 0.9600000000000004 12.436666666666667 0.8246153846153845 13.060833333333335 0.5723076923076926 13.609166666666667 0.22769230769230786 13.393333333333334 0.9292307692307693 12.944166666666668 1.52 12.349166666666669 1.8953846153846157 12.926666666666668 1.827692307692308 13.486666666666668 1.6615384615384619 14 1.427692307692308 13.609166666666667 2.0246153846153847 13.119166666666667 2.5600000000000005 12.559166666666668 2.990769230769231 12.559166666666668 2.990769230769231 12.559166666666668 2.990769230769231 12.559166666666668 2.990769230769231" stroke-width="0" stroke="none" stroke-dasharray="none" stroke-dashoffset="none" fill="rgb(59, 71, 84)" fill-rule="evenOdd"/></svg>